<svg width="64" height="64" viewBox="0 0 64 64" xmlns="http://www.w3.org/2000/svg">
  <!-- Konfiguration -->
  <defs>
    <style>
      .primary { fill: #E30613; }
      .secondary { fill: #1A1A1A; }
      .stroke { stroke: #1A1A1A; stroke-width: 2; fill: none; }
    </style>
  </defs>

  <!-- Gear outer -->
  <path class="secondary" d="M32 8 L36 12 L42 10 L44 16 L50 18 L48 24 L52 28 L48 32 L52 36 L48 42 L50 48 L44 50 L42 56 L36 54 L32 58 L28 54 L22 56 L20 50 L14 48 L16 42 L12 38 L16 32 L12 28 L16 22 L14 16 L20 14 L22 8 L28 10 L32 6 Z"/>

  <!-- Gear center -->
  <circle class="primary" cx="32" cy="32" r="12"/>
  <circle class="stroke" cx="32" cy="32" r="6" fill="white"/>

  <!-- Settings symbol -->
  <line class="secondary" x1="32" y1="28" x2="32" y2="36" stroke-width="2"/>
  <line class="secondary" x1="28" y1="32" x2="36" y2="32" stroke-width="2"/>
</svg>
